<svg id="Layer_5" enable-background="new 0 0 64 64" height="512" viewBox="0 0 64 64" width="512" xmlns="http://www.w3.org/2000/svg"><g><g><g><path d="m4 56h56v7h-56z" fill="#cf9e76"/></g><g><path d="m62 52v4h-2-56-2v-4h16 6 8.4 9.6 6z" fill="#d3a06c"/></g><g><path d="m24 46v6h-6c-3.31 0-6-2.69-6-6v-7.6c0-5.01 3.71-9.25 8.68-9.91l2.27-.31-.95 3.82 5.2 1.95c-.13.32-.2.68-.2 1.05 0 .89.38 1.69 1 2.23v7.18c-.33-.26-.75-.41-1.2-.41-.51 0-1 .2-1.37.57z" fill="#b4dd7f"/></g><g><path d="m42 52h-9.6c.88 0 1.6-.72 1.6-1.6v-2.8c0-.88-.72-1.6-1.6-1.6h-.4v-8.77c.62-.54 1-1.34 1-2.23 0-.37-.07-.73-.2-1.05l5.2-1.95-.95-3.82 2.27.31c4.97.66 8.68 4.9 8.68 9.91v13.6z" fill="#b4dd7f"/></g><g><path d="m29.02 32.16v.01c-.85.29-1.52.94-1.82 1.78l-5.2-1.95.95-3.82 4.05-.54v-.64c0 1.02 1.14 3.45 2.02 5.16z" fill="#a0d468"/></g><g><path d="m37.05 28.18.95 3.82-5.2 1.95c-.3-.84-.97-1.49-1.82-1.78.87-1.71 2.02-4.15 2.02-5.17v.64z" fill="#a0d468"/></g><g><path d="m32 37.23v8.77h-3l-.46-.93c-.13-.26-.32-.49-.54-.66v-7.18c.53.48 1.23.77 2 .77s1.47-.29 2-.77z" fill="#969faa"/></g><g><path d="m32.8 33.95c.13.32.2.68.2 1.05 0 .89-.38 1.69-1 2.23-.53.48-1.23.77-2 .77s-1.47-.29-2-.77c-.62-.54-1-1.34-1-2.23 0-.37.07-.73.2-1.05.3-.84.97-1.49 1.82-1.78.3-.11.64-.17.98-.17s.68.06.98.17c.85.29 1.52.94 1.82 1.78z" fill="#aab2bd"/></g><g><path d="m22 15c-.85 0-1.62.35-2.16.92l-.09-.08-.49-2.04c-.17-.73-.26-1.47-.26-2.22 0-5.29 4.29-9.58 9.58-9.58h2.84c2.64 0 5.04 1.07 6.77 2.81 1.74 1.73 2.81 4.13 2.81 6.77 0 .75-.09 1.49-.26 2.22l-.53 2.18c-.54-.6-1.33-.98-2.21-.98h-1v-.04c0-1.08-.88-1.96-1.96-1.96h-3.02c-.67 0-1.34-.13-1.97-.38l-3.6-1.44c-.3-.12-.61-.18-.93-.18-.7 0-1.32.28-1.78.74s-.74 1.08-.74 1.78v1.48z" fill="#262626"/></g><g><path d="m62 4v8c0 1.1-.9 2-2 2h-9l-2.17 2.17c-.53.53-1.25.83-2 .83-1.56 0-2.83-1.27-2.83-2.83v-10.17c0-1.1.9-2 2-2h14c1.1 0 2 .9 2 2z" fill="#e6e9ed"/></g><g><path d="m28 44.41c.22.17.41.4.54.66l.46.93h3 .4c.88 0 1.6.72 1.6 1.6v2.8c0 .88-.72 1.6-1.6 1.6h-8.4v-6l1.43-1.43c.37-.37.86-.57 1.37-.57.45 0 .87.15 1.2.41z" fill="#c06e26"/></g><g><path d="m40.21 15.98c.49.53.79 1.24.79 2.02 0 .83-.34 1.58-.88 2.12s-1.29.88-2.12.88h-1.29c.19-.63.29-1.3.29-2v-4h1c.88 0 1.67.38 2.21.98z" fill="#c06e26"/></g><g><path d="m33 27c0 1.02-1.15 3.46-2.02 5.17-.3-.11-.64-.17-.98-.17s-.68.06-.98.17v-.01c-.88-1.71-2.02-4.14-2.02-5.16v-1.68c.91.44 1.93.68 3 .68l3-.68z" fill="#c06e26"/></g><g><path d="m33 25.32-3 .68c-1.07 0-2.09-.24-3-.68-1.78-.84-3.14-2.41-3.71-4.32-.19-.63-.29-1.3-.29-2v-4-1.48c0-.7.28-1.32.74-1.78s1.08-.74 1.78-.74c.32 0 .63.06.93.18l3.6 1.44c.63.25 1.3.38 1.97.38h3.02c1.08 0 1.96.88 1.96 1.96v.04 4c0 .7-.1 1.37-.29 2-.33 1.13-.95 2.14-1.76 2.95-.56.56-1.22 1.03-1.95 1.37z" fill="#c06e26"/></g><g><path d="m23 19c0 .7.1 1.37.29 2h-1.29c-.83 0-1.58-.34-2.12-.88s-.88-1.29-.88-2.12c0-.81.32-1.54.84-2.08.54-.57 1.31-.92 2.16-.92h1z" fill="#c06e26"/></g></g><g><path d="m49 38.4c0-5.49-4.104-10.178-9.546-10.904l-5.454-.727v-.851c1.529-.888 2.739-2.264 3.411-3.918h.589c2.206 0 4-1.794 4-4 0-.835-.259-1.609-.698-2.251l.409-1.715c.192-.805.289-1.631.289-2.455 0-5.833-4.746-10.579-10.579-10.579h-2.842c-5.833 0-10.579 4.746-10.579 10.579 0 .824.097 1.649.289 2.455l.409 1.714c-.439.642-.698 1.417-.698 2.252 0 2.206 1.794 4 4 4h.589c.672 1.654 1.882 3.03 3.411 3.918v.851l-5.454.728c-5.442.726-9.546 5.413-9.546 10.903v7.6c0 1.958.81 3.728 2.111 5h-12.111v6h2v6h2v-6h54v6h2v-6h2v-6h-14zm-2 0v12.6h-4v-14h-2v14h-6.077c.046-.193.077-.392.077-.6v-2.8c0-1.226-.856-2.251-2-2.523v-7.459c.615-.703 1-1.612 1-2.618 0-.143-.027-.277-.042-.416l5.229-1.961-.813-3.253.816.109c4.452.594 7.81 4.429 7.81 8.921zm-22 8.014 1.14-1.14c.431-.429 1.23-.301 1.501.244l.741 1.482h4.018c.331 0 .6.269.6.6v2.8c0 .331-.269.6-.6.6h-7.4zm-1.241-17.328 2.624-.35c.245.698.65 1.667 1.308 3.008-.372.264-.697.589-.96.962l-3.546-1.329zm8.241 5.914c0 1.103-.897 2-2 2s-2-.897-2-2 .897-2 2-2 2 .897 2 2zm-2 4c.347 0 .678-.058 1-.142v6.142h-1.382l-.188-.376c-.117-.234-.263-.444-.43-.633v-5.133c.322.084.653.142 1 .142zm6.241-9.914.573 2.291-3.546 1.329c-.263-.373-.588-.698-.96-.962.658-1.341 1.063-2.31 1.308-3.008zm1.759-9.086h-.069c.041-.328.069-.661.069-1v-3c1.103 0 2 .897 2 2s-.897 2-2 2zm-9.421-17h2.842c4.73 0 8.579 3.849 8.579 8.579 0 .669-.079 1.339-.234 1.99l-.182.761c-.486-.21-1.021-.33-1.584-.33h-.174c-.402-1.16-1.493-2-2.788-2h-3.015c-.552 0-1.091-.104-1.603-.309l-3.602-1.44c-.416-.167-.855-.251-1.302-.251-1.939 0-3.516 1.577-3.516 3.516v.484c-.563 0-1.098.12-1.585.331l-.182-.76c-.154-.653-.233-1.323-.233-1.992 0-4.73 3.849-8.579 8.579-8.579zm-6.579 17c-1.103 0-2-.897-2-2s.897-2 2-2v3c0 .339.028.672.069 1zm2-1v-5.484c0-.836.68-1.516 1.516-1.516.193 0 .383.036.563.108l3.6 1.44c.749.3 1.539.451 2.346.451h3.015c.529.001.96.432.96.962v4.039c0 3.309-2.691 6-6 6s-6-2.691-6-6zm6 8c.692 0 1.359-.097 2-.263v.263c0 .152-.081 1.032-1.576 4.043-.141-.015-.279-.043-.424-.043s-.283.028-.424.043c-1.495-3.011-1.576-3.891-1.576-4.043v-.263c.641.166 1.308.263 2 .263zm-17 19v-7.6c0-4.492 3.358-8.327 7.811-8.922l.816-.109-.813 3.253 5.229 1.961c-.016.14-.043.274-.043.417 0 1.005.385 1.914 1 2.618v5.396c-.066-.005-.131-.014-.197-.014-.785 0-1.522.306-2.077.86l-1.14 1.14h-4.343c-.082 0-.161.019-.243.024v-8.024h-2v8.69c-.207.141-.405.3-.586.482l-1.121 1.121 1.414 1.414 1.121-1.121c.379-.378.881-.586 1.415-.586h3.757v4h-5c-2.757 0-5-2.243-5-5zm48 9h-58v-2h15 14.4 28.6z"/><path d="m60 1h-14c-1.654 0-3 1.346-3 3v10.172c0 2.11 1.717 3.828 3.829 3.828 1.022 0 1.983-.398 2.707-1.121l1.878-1.879h8.586c1.654 0 3-1.346 3-3v-8c0-1.654-1.346-3-3-3zm1 11c0 .552-.449 1-1 1h-9.414l-2.464 2.465c-.346.345-.805.535-1.293.535-1.009 0-1.829-.82-1.829-1.828v-10.172c0-.552.449-1 1-1h14c.551 0 1 .448 1 1z"/><path d="m48 7h2v2h-2z"/><path d="m52 7h2v2h-2z"/><path d="m56 7h2v2h-2z"/><path d="m35 39h4v2h-4z"/></g></g></svg>