<svg height="512" viewBox="0 0 58 58" width="512" xmlns="http://www.w3.org/2000/svg"><g id="Page-1" fill="none" fill-rule="evenodd"><g id="013---Tweet" fill-rule="nonzero" transform="translate(-1)"><path id="Shape" d="m45.586 28.607-5.347 4.834c-.3140989 1.6512011-1.0993543 3.1762151-2.261 4.391v.012c-1.825 21.7-22.457 20.918-31.19 19.6-.5238657-.0964843-.92989355-.5129231-1.01308664-1.0390632s.17454506-1.0475334.64308664-1.3009368c7.063-3.689 9.8-8.4 9.8-8.4-9.411-.004-13.693-8.237-15.128-11.921-.15571942-.3864237-.11679951-.8240703.10466623-1.1769509.22146575-.3528806.59864351-.5782387 1.01433377-.6060491h21.36c-.0603481-.3299835-.0921325-.6645558-.095-1-.1616954-3.7382566 2.0849607-7.1611956 5.579-8.5 3.1380991-1.1393193 6.6532292-.2991808 8.937 2.136l6.933.8c.4796242.0714341.8753872.4123798 1.0170177.8761503.1416305.4637704.0038678.9676491-.3540177 1.2948497z" fill="#3b97d3"/><path id="Shape" d="m59 3v13c0 1.6568542-1.3431458 3-3 3h-1.44l-3.1 6.973c-.080201.1806782-.2593215.2971429-.457.2971429s-.376799-.1164647-.457-.2971429l-3.106-6.973h-43.44c-1.65685425 0-3-1.3431458-3-3v-13c0-1.65685425 1.34314575-3 3-3h52c1.6568542 0 3 1.34314575 3 3z" fill="#f0c419"/><path id="Shape" d="m21 47c-.4494307.0003074-.8438561-.2992511-.9641796-.7322756-.1203235-.4330246.0630173-.8931255.4481796-1.1247244 4.445-2.666 4.516-9.08 4.516-9.143 0-.5522847.4477153-1 1-1s1 .4477153 1 1c0 .309-.063 7.6-5.485 10.857-.1553913.0937918-.3334971.1432465-.515.143z" fill="#2980ba"/><g fill="#3f5c6c"><path id="Shape" d="m11 6h-4c-.55228475 0-1-.44771525-1-1s.44771525-1 1-1h4c.5522847 0 1 .44771525 1 1s-.4477153 1-1 1z"/><path id="Shape" d="m28 6h-13c-.5522847 0-1-.44771525-1-1s.4477153-1 1-1h13c.5522847 0 1 .44771525 1 1s-.4477153 1-1 1z"/><path id="Shape" d="m44 6h-12c-.5522847 0-1-.44771525-1-1s.4477153-1 1-1h12c.5522847 0 1 .44771525 1 1s-.4477153 1-1 1z"/><path id="Shape" d="m18 11h-11c-.55228475 0-1-.4477153-1-1 0-.55228475.44771525-1 1-1h11c.5522847 0 1 .44771525 1 1 0 .5522847-.4477153 1-1 1z"/><path id="Shape" d="m37 11h-14c-.5522847 0-1-.4477153-1-1 0-.55228475.4477153-1 1-1h14c.5522847 0 1 .44771525 1 1 0 .5522847-.4477153 1-1 1z"/></g><circle id="Oval" cx="51" cy="12" fill="#ecf0f1" r="3"/></g></g></svg>